<svg width="23" height="23" viewBox="0 0 23 23" fill="none" xmlns="http://www.w3.org/2000/svg">
<path fill-rule="evenodd" clip-rule="evenodd" d="M13.6898 6.2267C12.6941 5.52698 12.4542 4.1526 13.1539 3.15693L14.4208 1.35412C15.1205 0.358447 16.4949 0.118528 17.4906 0.818245L19.7554 2.40988L21.4045 3.50924C22.277 4.09092 22.6228 5.21028 22.198 6.169C18.6221 14.2383 14.5017 18.4824 6.84109 21.9998C5.92756 22.4193 4.85075 22.1291 4.24128 21.3298L3.94849 20.9457L3.92245 20.9668L1.15273 17.5389C0.387895 16.5924 0.535212 15.205 1.48178 14.4402L3.19568 13.0553C4.14225 12.2905 5.52961 12.4378 6.29445 13.3844L8.32906 15.9024C11.3377 13.4135 13.5966 10.948 15.9092 7.78644L13.6898 6.2267Z" fill="white"/>
</svg>
