<svg width="35" height="36" viewBox="0 0 35 36" fill="none" xmlns="http://www.w3.org/2000/svg">
<g id="evaEmailOutline0">
<g id="evaEmailOutline1">
<path id="evaEmailOutline2" d="M29.75 0.986572H5.25C3.85761 0.986572 2.52226 1.66875 1.53769 2.88304C0.553124 4.09732 0 5.74425 0 7.4615V29.0446C0 30.7619 0.553124 32.4088 1.53769 33.6231C2.52226 34.8374 3.85761 35.5195 5.25 35.5195H29.75C31.1424 35.5195 32.4777 34.8374 33.4623 33.6231C34.4469 32.4088 35 30.7619 35 29.0446V7.4615C35 5.74425 34.4469 4.09732 33.4623 2.88304C32.4777 1.66875 31.1424 0.986572 29.75 0.986572ZM28.5775 5.30319L17.5 15.5552L6.4225 5.30319H28.5775ZM29.75 31.2029H5.25C4.78587 31.2029 4.34075 30.9755 4.01256 30.5708C3.68437 30.166 3.5 29.617 3.5 29.0446V8.00108L16.45 19.9797C16.7529 20.2599 17.1214 20.4114 17.5 20.4114C17.8786 20.4114 18.2471 20.2599 18.55 19.9797L31.5 8.00108V29.0446C31.5 29.617 31.3156 30.166 30.9874 30.5708C30.6593 30.9755 30.2141 31.2029 29.75 31.2029Z" fill="white"/>
</g>
</g>
</svg>
