<svg width="19" height="23" viewBox="0 0 19 23" fill="none" xmlns="http://www.w3.org/2000/svg">
<path fill-rule="evenodd" clip-rule="evenodd" d="M0.664795 2.27006V2.274V20.2684H0.668528L0.664795 20.2724L2.52071 22.2332L4.31389 20.3386L6.10706 22.2332L7.90023 20.3386L9.6934 22.2332L11.4866 20.3386L13.2797 22.2332L15.0729 20.3386L16.8661 22.2332L18.663 20.3347L18.6003 20.2684H18.6631V2.27006H18.6003L16.8071 0.375496L15.0139 2.27006L13.2207 0.375496L11.4276 2.27006L9.6344 0.375496L7.84123 2.27006L6.04805 0.375496L4.35358 2.16577L2.5633 0.375496L2.51111 0.427689L2.46171 0.375496L0.668527 2.27006H0.664795ZM3.23633 4.23274H16.0938V5.51849H3.23633V4.23274ZM3.23629 6.80423H16.0938V8.08998H3.23629V6.80423ZM16.0938 9.37573H3.23629V10.6615H16.0938V9.37573ZM3.23629 11.9472H16.0938V13.233H3.23629V11.9472ZM16.0938 14.5187H3.23629V15.8045H16.0938V14.5187ZM3.23629 17.0902H16.0938V18.376H3.23629V17.0902Z" fill="white"/>
</svg>
