<svg width="35" height="35" viewBox="0 0 35 35" fill="none" xmlns="http://www.w3.org/2000/svg">
<path id="Vector" d="M29.8995 5.02464C28.287 3.42564 26.3664 2.15783 24.2496 1.29517C22.1328 0.432514 19.8623 -0.00773556 17.5704 0.000102856C7.96734 0.000102856 0.140704 7.68367 0.140704 17.1111C0.140704 20.1328 0.949749 23.0681 2.46231 25.658L0 34.533L9.23367 32.1502C11.7839 33.5143 14.6508 34.2394 17.5704 34.2394C27.1734 34.2394 35 26.5559 35 17.1284C35 12.5528 33.1884 8.25346 29.8995 5.02464ZM17.5704 31.3387C14.9673 31.3387 12.4171 30.648 10.1834 29.353L9.65578 29.0422L4.16834 30.4581L5.62814 25.2091L5.27638 24.6738C3.83021 22.4067 3.06231 19.7861 3.0603 17.1111C3.0603 9.27218 9.56784 2.8836 17.5528 2.8836C21.4221 2.8836 25.0628 4.36851 27.7889 7.06208C29.1388 8.38117 30.2085 9.95017 30.9361 11.6781C31.6637 13.4061 32.0347 15.2586 32.0276 17.1284C32.0628 24.9674 25.5553 31.3387 17.5704 31.3387ZM25.5201 20.7026C25.0804 20.4954 22.9347 19.4594 22.5477 19.304C22.1432 19.1658 21.8618 19.0968 21.5628 19.5112C21.2638 19.9428 20.4372 20.9098 20.191 21.186C19.9447 21.4795 19.6809 21.5141 19.2412 21.2896C18.8015 21.0824 17.3945 20.6162 15.7412 19.1658C14.4397 18.0263 13.5779 16.6277 13.3141 16.196C13.0678 15.7644 13.2789 15.5399 13.5075 15.3154C13.701 15.1255 13.9472 14.8147 14.1583 14.573C14.3693 14.3312 14.4573 14.1413 14.598 13.865C14.7387 13.5715 14.6683 13.3298 14.5628 13.1226C14.4573 12.9154 13.5779 10.8089 13.2261 9.94557C12.8744 9.11678 12.505 9.22038 12.2412 9.20311H11.397C11.098 9.20311 10.6407 9.30671 10.2362 9.73837C9.84925 10.17 8.72362 11.206 8.72362 13.3125C8.72362 15.419 10.2889 17.4565 10.5 17.7327C10.7111 18.0263 13.5779 22.3429 17.9397 24.1904C18.9774 24.6393 19.7864 24.8983 20.4196 25.0882C21.4573 25.4163 22.407 25.3645 23.1633 25.2609C24.0075 25.14 25.7487 24.2249 26.1005 23.2235C26.4698 22.222 26.4698 21.3759 26.3467 21.186C26.2236 20.9961 25.9598 20.9098 25.5201 20.7026Z" fill="white"/>
</svg>
