<svg width="22" height="18" viewBox="0 0 22 18" fill="none" xmlns="http://www.w3.org/2000/svg">
<path fill-rule="evenodd" clip-rule="evenodd" d="M5.32008 0.657288H16.4377V1.89258H20.1436C20.8258 1.89258 21.3789 2.44564 21.3789 3.12788V16.7161C21.3789 17.3983 20.8258 17.9514 20.1436 17.9514H1.6142C0.931966 17.9514 0.378906 17.3983 0.378906 16.7161V3.12787C0.378906 2.44564 0.931966 1.89258 1.6142 1.89258H5.32008V0.657288ZM10.8789 15.4808C13.949 15.4808 16.4377 12.992 16.4377 9.92199C16.4377 6.85194 13.949 4.36317 10.8789 4.36317C7.80885 4.36317 5.32008 6.85194 5.32008 9.92199C5.32008 12.992 7.80885 15.4808 10.8789 15.4808ZM15.2024 9.92199C15.2024 12.3098 13.2667 14.2455 10.8789 14.2455C8.49109 14.2455 6.55538 12.3098 6.55538 9.92199C6.55538 7.53417 8.49109 5.59846 10.8789 5.59846C13.2667 5.59846 15.2024 7.53417 15.2024 9.92199ZM13.3495 9.30434C13.6906 9.30434 13.9671 9.02781 13.9671 8.6867C13.9671 8.34558 13.6906 8.06905 13.3495 8.06905C13.0084 8.06905 12.7318 8.34558 12.7318 8.6867C12.7318 9.02781 13.0084 9.30434 13.3495 9.30434Z" fill="white"/>
</svg>
