<svg width="25" height="22" viewBox="0 0 25 22" fill="none" xmlns="http://www.w3.org/2000/svg">
<path fill-rule="evenodd" clip-rule="evenodd" d="M6.18005 7.49661C5.69511 8.55998 5.53309 10.0147 5.57857 11.3042H9.52004C10.228 11.3042 10.802 11.8781 10.802 12.5861V20.2778C10.802 20.9858 10.228 21.5597 9.52005 21.5597H1.82838C1.12038 21.5597 0.546429 20.9858 0.546429 20.2778V12.7392C0.324972 10.7865 0.38468 7.84644 1.51453 5.36893C2.11704 4.04777 3.08353 2.7343 4.59239 1.87396C6.12304 1.00121 7.93999 0.749919 9.9414 1.08349L9.0984 6.1415C8.02314 5.96229 7.44713 6.149 7.13231 6.3285C6.7957 6.52044 6.46423 6.87349 6.18005 7.49661ZM19.6797 11.4114C19.6342 10.1219 19.7963 8.66726 20.2812 7.60389C20.5654 6.98077 20.8969 6.62771 21.2335 6.43578C21.5483 6.25628 22.1243 6.06957 23.1996 6.24878L24.0426 1.19077C22.0411 0.857198 20.2242 1.10849 18.6935 1.98124C17.1847 2.84158 16.2182 4.15505 15.6157 5.47621C14.4858 7.95371 14.4261 10.8938 14.6476 12.8465V20.385C14.6476 21.093 15.2215 21.667 15.9295 21.667H23.6212C24.3292 21.667 24.9031 21.093 24.9031 20.385V12.6934C24.9031 11.9854 24.3292 11.4114 23.6212 11.4114H19.6797Z" fill="white"/>
</svg>
