<svg width="22" height="21" viewBox="0 0 22 21" fill="none" xmlns="http://www.w3.org/2000/svg">
<path fill-rule="evenodd" clip-rule="evenodd" d="M2.76385 0.971016C2.76385 0.602826 3.06233 0.304348 3.43052 0.304348H19.4305C19.7987 0.304348 20.0972 0.602825 20.0972 0.971015V6.30435C20.0972 6.67254 19.7987 6.97101 19.4305 6.97101H15.4305H7.43052C7.06233 6.97101 6.76385 7.26949 6.76385 7.63768V10.3043C6.76385 10.6725 6.46537 10.971 6.09718 10.971H3.43052C3.06233 10.971 2.76385 10.6725 2.76385 10.3043V0.971016ZM8.76366 8.30435C8.39547 8.30435 8.09699 8.60283 8.09699 8.97102V10.3044C8.09699 10.6725 8.39547 10.971 8.76366 10.971H13.7637C14.1318 10.971 14.4303 11.2695 14.4303 11.6377V16.971C14.4303 17.3392 14.7288 17.6377 15.097 17.6377H20.7637C21.1318 17.6377 21.4303 17.3392 21.4303 16.971V8.97102C21.4303 8.60283 21.1318 8.30435 20.7637 8.30435H8.76366ZM19.0971 11.6377C19.6493 11.6377 20.0971 11.19 20.0971 10.6377C20.0971 10.0854 19.6493 9.63768 19.0971 9.63768C18.5448 9.63768 18.0971 10.0854 18.0971 10.6377C18.0971 11.19 18.5448 11.6377 19.0971 11.6377ZM0.763672 12.3043C0.763672 11.9362 1.06215 11.6377 1.43034 11.6377H12.7637C13.1319 11.6377 13.4303 11.9362 13.4303 12.3043V19.6377C13.4303 20.0059 13.1319 20.3043 12.7637 20.3043H1.43034C1.06215 20.3043 0.763672 20.0059 0.763672 19.6377V13.3043L7.09665 17.3041L7.09674 17.3043L7.09684 17.3042L7.09701 17.3043L7.09715 17.3041L13.4301 13.6377L13.4303 12.6377L7.09687 16.4376L0.763672 12.6377V12.3043Z" fill="white"/>
</svg>
