<svg width="55" height="52" viewBox="0 0 55 52" fill="none" xmlns="http://www.w3.org/2000/svg">
<path fill-rule="evenodd" clip-rule="evenodd" d="M18.7 18.6543C18.7 18.1849 19.0806 17.8043 19.55 17.8043H34.85C35.3194 17.8043 35.7 18.1849 35.7 18.6543L35.7 35.6543H37.4V38.2043H35.7H18.7H17V35.6543H18.7V18.6543Z" fill="white"/>
<path fill-rule="evenodd" clip-rule="evenodd" d="M21.25 21.2044C21.25 20.7349 21.6306 20.3544 22.1 20.3544H24.65C25.1194 20.3544 25.5 20.7349 25.5 21.2044V22.9044C25.5 23.3738 25.1194 23.7544 24.65 23.7544H22.1C21.6306 23.7544 21.25 23.3738 21.25 22.9044V21.2044ZM21.25 25.4544C21.25 24.9849 21.6306 24.6044 22.1 24.6044H24.65C25.1194 24.6044 25.5 24.9849 25.5 25.4544V27.1544C25.5 27.6238 25.1194 28.0044 24.65 28.0044H22.1C21.6306 28.0044 21.25 27.6238 21.25 27.1544V25.4544ZM22.1 28.8544C21.6306 28.8544 21.25 29.2349 21.25 29.7044V31.4044C21.25 31.8738 21.6306 32.2544 22.1 32.2544H24.65C25.1194 32.2544 25.5 31.8738 25.5 31.4044V29.7044C25.5 29.2349 25.1194 28.8544 24.65 28.8544H22.1ZM28.8999 21.2044C28.8999 20.7349 29.2805 20.3544 29.7499 20.3544H32.2999C32.7693 20.3544 33.1499 20.7349 33.1499 21.2044V22.9044C33.1499 23.3738 32.7693 23.7544 32.2999 23.7544H29.7499C29.2805 23.7544 28.8999 23.3738 28.8999 22.9044V21.2044ZM29.7499 24.6044C29.2805 24.6044 28.8999 24.9849 28.8999 25.4544V27.1544C28.8999 27.6238 29.2805 28.0044 29.7499 28.0044H32.2999C32.7693 28.0044 33.1499 27.6238 33.1499 27.1544V25.4544C33.1499 24.9849 32.7693 24.6044 32.2999 24.6044H29.7499ZM28.8999 29.7044C28.8999 29.2349 29.2805 28.8544 29.7499 28.8544H32.2999C32.7693 28.8544 33.1499 29.2349 33.1499 29.7044V31.4044C33.1499 31.8738 32.7693 32.2544 32.2999 32.2544H29.7499C29.2805 32.2544 28.8999 31.8738 28.8999 31.4044V29.7044ZM25.925 33.1044C25.6903 33.1044 25.5 33.2946 25.5 33.5294V36.9294C25.5 37.1641 25.6903 37.3544 25.925 37.3544H28.475C28.7097 37.3544 28.9 37.1641 28.9 36.9294V33.5294C28.9 33.2946 28.7097 33.1044 28.475 33.1044H25.925Z" fill="#061E2B"/>
<rect x="0.425" y="1.22935" width="53.55" height="50.15" rx="3.825" stroke="#9747FF" stroke-width="0.85" stroke-dasharray="8.5 4.25"/>
</svg>
