<svg width="29" height="29" viewBox="0 0 29 29" fill="none" xmlns="http://www.w3.org/2000/svg">
<path fill-rule="evenodd" clip-rule="evenodd" d="M2.41667 1.02708C2.41667 0.459842 2.87651 0 3.44375 0H25.5563C26.1235 0 26.5833 0.459841 26.5833 1.02708V25.375H29V29H26.5833H2.41667H0V25.375H2.41667V1.02708Z" fill="white"/>
<path fill-rule="evenodd" clip-rule="evenodd" d="M6.04169 4.65208C6.04169 4.08484 6.50153 3.625 7.06877 3.625H11.0563C11.6235 3.625 12.0834 4.08484 12.0834 4.65208V7.43125C12.0834 7.99849 11.6235 8.45833 11.0563 8.45833H7.06877C6.50153 8.45833 6.04169 7.99849 6.04169 7.43125V4.65208ZM6.04169 10.6938C6.04169 10.1265 6.50153 9.66667 7.06877 9.66667H11.0563C11.6235 9.66667 12.0834 10.1265 12.0834 10.6938V13.4729C12.0834 14.0402 11.6235 14.5 11.0563 14.5H7.06877C6.50153 14.5 6.04169 14.0402 6.04169 13.4729V10.6938ZM7.06877 15.7083C6.50153 15.7083 6.04169 16.1682 6.04169 16.7354V19.5146C6.04169 20.0818 6.50153 20.5417 7.06877 20.5417H11.0563C11.6235 20.5417 12.0834 20.0818 12.0834 19.5146V16.7354C12.0834 16.1682 11.6235 15.7083 11.0563 15.7083H7.06877ZM16.9166 4.65208C16.9166 4.08484 17.3764 3.625 17.9436 3.625H21.9311C22.4984 3.625 22.9582 4.08484 22.9582 4.65208V7.43125C22.9582 7.99849 22.4984 8.45833 21.9311 8.45833H17.9436C17.3764 8.45833 16.9166 7.99849 16.9166 7.43125V4.65208ZM17.9436 9.66667C17.3764 9.66667 16.9166 10.1265 16.9166 10.6938V13.4729C16.9166 14.0402 17.3764 14.5 17.9436 14.5H21.9311C22.4984 14.5 22.9582 14.0402 22.9582 13.4729V10.6938C22.9582 10.1265 22.4984 9.66667 21.9311 9.66667H17.9436ZM16.9166 16.7354C16.9166 16.1682 17.3764 15.7083 17.9436 15.7083H21.9311C22.4984 15.7083 22.9582 16.1682 22.9582 16.7354V19.5146C22.9582 20.0818 22.4984 20.5417 21.9311 20.5417H17.9436C17.3764 20.5417 16.9166 20.0818 16.9166 19.5146V16.7354ZM12.5969 21.75C12.3133 21.75 12.0834 21.9799 12.0834 22.2635V27.2781C12.0834 27.5617 12.3133 27.7917 12.5969 27.7917H16.4031C16.6868 27.7917 16.9167 27.5617 16.9167 27.2781V22.2635C16.9167 21.9799 16.6868 21.75 16.4031 21.75H12.5969Z" fill="#061E2B"/>
</svg>
