<svg width="15" height="21" viewBox="0 0 15 21" fill="none" xmlns="http://www.w3.org/2000/svg">
<path fill-rule="evenodd" clip-rule="evenodd" d="M2.01836 11.3043C1.22749 10.1705 0.763672 8.7916 0.763672 7.30435C0.763672 3.43835 3.89768 0.304348 7.76367 0.304348C11.6297 0.304348 14.7637 3.43835 14.7637 7.30435C14.7637 8.7916 14.2999 10.1705 13.509 11.3043H13.597L7.76369 20.3043L1.93034 11.3043H2.01836ZM7.76367 11.3043C10.5251 11.3043 12.7637 9.28963 12.7637 6.80435C12.7637 4.31907 10.5251 2.30435 7.76367 2.30435C5.00225 2.30435 2.76367 4.31907 2.76367 6.80435C2.76367 9.28963 5.00225 11.3043 7.76367 11.3043Z" fill="white"/>
</svg>
