<svg width="28" height="24" viewBox="0 0 28 24" fill="none" xmlns="http://www.w3.org/2000/svg">
<g id="Alb&#195;&#186;m de fotos">
<path id="Subtract" fill-rule="evenodd" clip-rule="evenodd" d="M6.58822 0H21.4118V1.71429H6.58822V0ZM0 3.65551C0 2.58343 0.869094 1.71434 1.94118 1.71434H26.0588C27.1309 1.71434 28 2.58343 28 3.65551V22.0589C28 23.131 27.1309 24.0001 26.0588 24.0001H1.94118C0.869096 24.0001 0 23.131 0 22.0589V3.65551ZM14 20.5714C18.0934 20.5714 21.4118 17.1176 21.4118 12.8571C21.4118 8.59663 18.0934 5.14282 14 5.14282C9.90658 5.14282 6.58822 8.59663 6.58822 12.8571C6.58822 17.1176 9.90658 20.5714 14 20.5714ZM19.7646 12.8572C19.7646 16.1709 17.1837 18.8572 13.9999 18.8572C10.8162 18.8572 8.23523 16.1709 8.23523 12.8572C8.23523 9.54345 10.8162 6.85716 13.9999 6.85716C17.1837 6.85716 19.7646 9.54345 19.7646 12.8572ZM17.2942 11.9999C17.749 11.9999 18.1177 11.6162 18.1177 11.1428C18.1177 10.6694 17.749 10.2856 17.2942 10.2856C16.8394 10.2856 16.4706 10.6694 16.4706 11.1428C16.4706 11.6162 16.8394 11.9999 17.2942 11.9999Z" fill="white"/>
</g>
</svg>
