<svg width="35" height="35" viewBox="0 0 35 35" fill="none" xmlns="http://www.w3.org/2000/svg">
<path d="M10.15 0H24.85C30.45 0 35 4.48929 35 10.0146V24.5184C35 27.1744 33.9306 29.7217 32.0271 31.5998C30.1236 33.4779 27.5419 34.533 24.85 34.533H10.15C4.55 34.533 0 30.0437 0 24.5184V10.0146C0 7.35854 1.06937 4.81129 2.97287 2.9332C4.87636 1.0551 7.45805 0 10.15 0ZM9.8 3.4533C8.12914 3.4533 6.52671 4.10819 5.34523 5.2739C4.16375 6.43962 3.5 8.02066 3.5 9.66923V24.8637C3.5 28.2998 6.3175 31.0797 9.8 31.0797H25.2C26.8709 31.0797 28.4733 30.4248 29.6548 29.2591C30.8363 28.0934 31.5 26.5123 31.5 24.8637V9.66923C31.5 6.2332 28.6825 3.4533 25.2 3.4533H9.8ZM26.6875 6.04327C27.2677 6.04327 27.8241 6.27066 28.2343 6.67543C28.6445 7.08019 28.875 7.62916 28.875 8.20158C28.875 8.774 28.6445 9.32298 28.2343 9.72774C27.8241 10.1325 27.2677 10.3599 26.6875 10.3599C26.1073 10.3599 25.5509 10.1325 25.1407 9.72774C24.7305 9.32298 24.5 8.774 24.5 8.20158C24.5 7.62916 24.7305 7.08019 25.1407 6.67543C25.5509 6.27066 26.1073 6.04327 26.6875 6.04327ZM17.5 8.63324C19.8206 8.63324 22.0462 9.54281 23.6872 11.1619C25.3281 12.7809 26.25 14.9768 26.25 17.2665C26.25 19.5562 25.3281 21.7521 23.6872 23.3711C22.0462 24.9902 19.8206 25.8997 17.5 25.8997C15.1794 25.8997 12.9538 24.9902 11.3128 23.3711C9.67187 21.7521 8.75 19.5562 8.75 17.2665C8.75 14.9768 9.67187 12.7809 11.3128 11.1619C12.9538 9.54281 15.1794 8.63324 17.5 8.63324ZM17.5 12.0865C16.1076 12.0865 14.7723 12.6323 13.7877 13.6037C12.8031 14.5751 12.25 15.8927 12.25 17.2665C12.25 18.6403 12.8031 19.9578 13.7877 20.9293C14.7723 21.9007 16.1076 22.4464 17.5 22.4464C18.8924 22.4464 20.2277 21.9007 21.2123 20.9293C22.1969 19.9578 22.75 18.6403 22.75 17.2665C22.75 15.8927 22.1969 14.5751 21.2123 13.6037C20.2277 12.6323 18.8924 12.0865 17.5 12.0865Z" fill="white"/>
</svg>
