<svg width="21" height="19" viewBox="0 0 21 19" fill="none" xmlns="http://www.w3.org/2000/svg">
<path fill-rule="evenodd" clip-rule="evenodd" d="M9.35174 0.769176C9.26361 0.353028 9.20405 0.0717569 8.2562 0.0138633C7.20892 -0.0501042 4.19428 3.88452 3.6784 4.56863C3.39851 4.5963 3.17988 4.8324 3.17988 5.11957V12.5991C3.17988 12.9049 3.42776 13.1528 3.73353 13.1528H8.10307C7.6095 12.312 7.02087 10.7932 7.35913 9.25593C7.85893 6.98457 11.053 4.66506 14.0531 7.74533C14.0696 7.76219 14.0968 7.76361 14.1135 7.74696C14.251 7.60927 14.406 7.46945 14.5758 7.33335C14.6101 7.02245 14.6207 6.71872 14.6017 6.42813C14.5725 5.98015 14.4612 5.38736 14.3787 4.99215C14.3263 4.74137 14.1037 4.56592 13.8475 4.56592H8.93191C9.10862 4.10931 9.77801 2.24418 9.41954 1.04842C9.39002 0.94994 9.37025 0.856587 9.35174 0.769184L9.35174 0.769176ZM0.430176 5.78279C0.430176 5.28215 0.836028 4.8763 1.33667 4.8763C1.83732 4.8763 2.24317 5.28215 2.24317 5.78279V12.2463C2.24317 12.7469 1.83732 13.1528 1.33667 13.1528C0.836028 13.1528 0.430176 12.7469 0.430176 12.2463V5.78279ZM14.2187 8.39308C15.522 7.16746 18.5363 5.74877 20.4104 9.68844C20.4122 9.69218 20.4134 9.69612 20.414 9.70022C20.5173 10.414 20.4604 12.1411 19.4108 13.3906C18.3659 14.6345 15.5471 17.3533 14.2393 18.5846C14.223 18.6 14.1981 18.5989 14.1821 18.5831L8.94814 13.3906C8.48871 12.8129 7.66172 11.2647 8.02927 9.69426C8.48706 7.73825 11.4122 5.74077 14.1603 8.3916C14.1765 8.40724 14.2023 8.40851 14.2187 8.39308Z" fill="white"/>
</svg>
