<svg width="35" height="35" viewBox="0 0 35 35" fill="none" xmlns="http://www.w3.org/2000/svg">
<path d="M31.1111 0C32.1425 0 33.1317 0.404254 33.861 1.12383C34.5903 1.84341 35 2.81936 35 3.837V30.696C35 31.7136 34.5903 32.6896 33.861 33.4091C33.1317 34.1287 32.1425 34.533 31.1111 34.533H3.88889C2.85749 34.533 1.86834 34.1287 1.13903 33.4091C0.409721 32.6896 0 31.7136 0 30.696V3.837C0 2.81936 0.409721 1.84341 1.13903 1.12383C1.86834 0.404254 2.85749 0 3.88889 0H31.1111ZM30.1389 29.7367V19.5687C30.1389 17.9099 29.471 16.3191 28.2823 15.1462C27.0935 13.9733 25.4812 13.3144 23.8 13.3144C22.1472 13.3144 20.2222 14.312 19.2889 15.8084V13.6789H13.8639V29.7367H19.2889V20.2785C19.2889 18.8013 20.4944 17.5926 21.9917 17.5926C22.7136 17.5926 23.4061 17.8756 23.9166 18.3793C24.4271 18.883 24.7139 19.5662 24.7139 20.2785V29.7367H30.1389ZM7.54444 10.6669C8.41082 10.6669 9.24171 10.3273 9.85433 9.72283C10.4669 9.11839 10.8111 8.29859 10.8111 7.44377C10.8111 5.65957 9.35278 4.20151 7.54444 4.20151C6.67291 4.20151 5.83708 4.54311 5.22081 5.15115C4.60455 5.75919 4.25833 6.58387 4.25833 7.44377C4.25833 9.22798 5.73611 10.6669 7.54444 10.6669ZM10.2472 29.7367V13.6789H4.86111V29.7367H10.2472Z" fill="white"/>
</svg>
