<svg width="24" height="22" viewBox="0 0 24 22" fill="none" xmlns="http://www.w3.org/2000/svg">
<path fill-rule="evenodd" clip-rule="evenodd" d="M7.22677 0.704422H0.160156V4.23773H2.728C2.72813 4.30145 2.73344 4.36613 2.74431 4.43135L4.11838 12.6757C4.21303 13.2437 4.70438 13.6599 5.28012 13.6599H6.04917V17.1932H6.63784C6.26821 17.6853 6.04917 18.297 6.04917 18.9599C6.04917 20.586 7.36744 21.9043 8.9936 21.9043C10.6198 21.9043 11.938 20.586 11.938 18.9599C11.938 18.297 11.719 17.6853 11.3494 17.1932H14.8821C14.5124 17.6853 14.2934 18.297 14.2934 18.9599C14.2934 20.586 15.6117 21.9043 17.2378 21.9043C18.864 21.9043 20.1822 20.586 20.1822 18.9599C20.1822 18.2459 19.9282 17.5914 19.5055 17.0816C19.9055 16.8934 20.1823 16.4867 20.1823 16.0154V14.8377L8.40471 14.8377V13.6599L19.3334 13.6599C19.8404 13.6599 20.2904 13.3355 20.4507 12.8546L23.1989 4.61018C23.4531 3.84753 22.8854 3.05996 22.0815 3.05996H8.40454V1.88219C8.40454 1.23173 7.87724 0.704422 7.22677 0.704422Z" fill="white"/>
</svg>
