<svg width="23" height="19" viewBox="0 0 23 19" fill="none" xmlns="http://www.w3.org/2000/svg">
<path fill-rule="evenodd" clip-rule="evenodd" d="M2.09333 0.304348C1.38325 0.304348 0.807617 0.879982 0.807617 1.59006V17.0186C0.807617 17.7287 1.38325 18.3043 2.09333 18.3043H21.379C22.0891 18.3043 22.6648 17.7287 22.6648 17.0186V1.59006C22.6648 0.879982 22.0891 0.304348 21.379 0.304348H2.09333ZM3.37915 2.87578H20.0934V5.44721H3.37915V2.87578ZM3.37908 6.73292H20.0934V8.01864H3.37908V6.73292ZM20.0934 11.8758H3.37908V13.1615H20.0934V11.8758ZM3.37908 14.4472H20.0934V15.7329H3.37908V14.4472ZM11.0934 9.30435H3.37908V10.5901H11.0934V9.30435ZM12.3791 9.30435H20.0934V10.5901H12.3791V9.30435Z" fill="white"/>
</svg>
