<svg width="16" height="19" viewBox="0 0 16 19" fill="none" xmlns="http://www.w3.org/2000/svg">
<path fill-rule="evenodd" clip-rule="evenodd" d="M9.53855 0.304352H6.53855V1.47828C3.67185 2.15545 1.53855 4.73077 1.53855 7.80435V11.3044C1.53855 11.5259 1.55656 11.7432 1.59119 11.9549C1.45241 12.0411 1.33451 12.1614 1.25063 12.3082L0.393488 13.8082C0.0125416 14.4749 0.493909 15.3044 1.26173 15.3044H5.53855H10.5386H14.8154C15.5832 15.3044 16.0646 14.4749 15.6836 13.8082L14.8265 12.3082C14.7426 12.1614 14.6247 12.0411 14.4859 11.9549C14.5205 11.7432 14.5386 11.5259 14.5386 11.3044V7.80435C14.5386 4.73077 12.4053 2.15545 9.53855 1.47828V0.304352ZM11.5386 16.3044H4.53855C4.53855 17.4089 5.43398 18.3044 6.53855 18.3044H9.53855C10.6431 18.3044 11.5386 17.4089 11.5386 16.3044Z" fill="white"/>
</svg>
