<svg width="30" height="18" viewBox="0 0 30 18" fill="none" xmlns="http://www.w3.org/2000/svg">
<path fill-rule="evenodd" clip-rule="evenodd" d="M15.8901 1.43502C13.5968 2.21026 11.0495 5.30752 11.0495 5.30752C10.7268 5.63022 10.7113 6.56745 11.0495 7.24377C11.2089 7.56258 11.4427 7.74314 11.6764 7.9237C11.7933 8.014 11.9102 8.1043 12.0178 8.21189C12.0178 8.21189 13.4656 8.87999 14.9222 7.24377C15.782 6.27794 16.3276 6.21319 16.8584 6.27564C17.0523 6.29845 17.9544 7.21687 19.0412 8.32346L19.0413 8.32352L19.0413 8.32353C20.9303 10.2469 23.3775 12.7386 23.6353 12.0844C24.0414 11.0538 23.6353 3.37127 23.6353 3.37127C23.6353 3.37127 22.616 1.98521 21.6991 1.43502C19.7538 0.267864 18.0392 0.708564 15.8901 1.43502ZM2.33627 3.37127C1.26691 3.37127 0.400024 4.23816 0.400024 5.30752V13.0525C0.400024 14.1219 1.26691 14.9888 2.33627 14.9888C3.40563 14.9888 4.27252 14.1219 4.27252 13.0525V5.30752C4.27252 4.23816 3.40563 3.37127 2.33627 3.37127ZM25.5712 5.30752C25.5712 4.23816 26.4381 3.37127 27.5075 3.37127C28.5769 3.37127 29.4437 4.23816 29.4437 5.30752V13.0525C29.4437 14.1219 28.5769 14.9888 27.5075 14.9888C26.4381 14.9888 25.5712 14.1219 25.5712 13.0525V5.30752ZM6.20901 4.33941V14.0207L11.0496 17.8932H18.7946C18.7946 17.8932 21.6364 17.3622 22.6671 15.9569C23.6978 14.5516 24.2161 13.827 22.6671 13.0525C21.1181 12.278 18.1492 9.50274 16.8584 8.21191L13.954 10.1482C12.0178 10.4709 8.33889 9.95453 9.11338 5.30754C9.82156 4.22204 11.0297 3.33088 11.942 2.6579C12.7115 2.09032 13.2706 1.67793 13.1419 1.43503C12.8607 0.904124 9.11338 1.43504 9.11338 1.43504C8.46797 1.43504 6.98351 2.01591 6.20901 4.33941Z" fill="white"/>
</svg>
