<svg width="22" height="22" viewBox="0 0 22 22" fill="none" xmlns="http://www.w3.org/2000/svg">
<path fill-rule="evenodd" clip-rule="evenodd" d="M6.88576 2.60436C6.88576 2.27299 7.15439 2.00436 7.48576 2.00436H15.1292C15.4606 2.00436 15.7292 2.27299 15.7292 2.60436V3.80436L6.88576 3.80435V2.60436ZM5.68576 3.80435V2.60436C5.68576 1.61024 6.49165 0.804359 7.48576 0.804359H15.1292C16.1233 0.804359 16.9292 1.61025 16.9292 2.60436V3.80436L19.4076 3.80435C20.7331 3.80435 21.8076 4.87887 21.8076 6.20435V12.2043L0.807617 12.2043V6.20435C0.807617 4.87887 1.88213 3.80435 3.20762 3.80435L5.68576 3.80435ZM7.37011 13.4043H0.807617V19.4043C0.807617 20.7298 1.88213 21.8043 3.20761 21.8043H19.4076C20.7331 21.8043 21.8076 20.7298 21.8076 19.4043V13.4043H15.2451V15.2418H7.37011V13.4043Z" fill="white"/>
</svg>
