<svg width="71" height="53" viewBox="0 0 71 53" fill="none" xmlns="http://www.w3.org/2000/svg">
<path d="M22.574 21.6113L35.6175 18.6957L48.6609 21.6113V31.3299L35.6175 35.2174L22.574 31.3299V21.6113Z" fill="white"/>
<mask id="path-3-inside-1_512_111" fill="white">
<path fill-rule="evenodd" clip-rule="evenodd" d="M48.6609 17.3913L35.6174 18.6957L22.574 17.3913L17.7914 24.3478L33.0088 26.5217L35.6174 18.6957L38.2261 26.5217L53.0087 25.2174L48.6609 17.3913Z"/>
</mask>
<path fill-rule="evenodd" clip-rule="evenodd" d="M48.6609 17.3913L35.6174 18.6957L22.574 17.3913L17.7914 24.3478L33.0088 26.5217L35.6174 18.6957L38.2261 26.5217L53.0087 25.2174L48.6609 17.3913Z" fill="#D9D9D9"/>
<path d="M35.6174 18.6957L35.5309 19.5609L35.6174 19.5696L35.7039 19.5609L35.6174 18.6957ZM48.6609 17.3913L49.421 16.969L49.1433 16.4692L48.5744 16.5261L48.6609 17.3913ZM22.574 17.3913L22.6605 16.5261L22.1488 16.4749L21.8574 16.8987L22.574 17.3913ZM17.7914 24.3478L17.0748 23.8552L16.2806 25.0104L17.6684 25.2087L17.7914 24.3478ZM33.0088 26.5217L32.8858 27.3826L33.6042 27.4852L33.8337 26.7967L33.0088 26.5217ZM35.6174 18.6957L36.4424 18.4208L35.6174 15.9459L34.7925 18.4208L35.6174 18.6957ZM38.2261 26.5217L37.4012 26.7967L37.6184 27.4483L38.3025 27.3879L38.2261 26.5217ZM53.0087 25.2174L53.0852 26.0836L54.4193 25.9659L53.7689 24.7951L53.0087 25.2174ZM35.7039 19.5609L48.7474 18.2566L48.5744 16.5261L35.5309 17.8304L35.7039 19.5609ZM22.4875 18.2566L35.5309 19.5609L35.7039 17.8304L22.6605 16.5261L22.4875 18.2566ZM18.5079 24.8405L23.2905 17.8839L21.8574 16.8987L17.0748 23.8552L18.5079 24.8405ZM33.1317 25.6609L17.9144 23.487L17.6684 25.2087L32.8858 27.3826L33.1317 25.6609ZM34.7925 18.4208L32.1838 26.2468L33.8337 26.7967L36.4424 18.9707L34.7925 18.4208ZM39.0511 26.2468L36.4424 18.4208L34.7925 18.9707L37.4012 26.7967L39.0511 26.2468ZM52.9323 24.3512L38.1497 25.6555L38.3025 27.3879L53.0852 26.0836L52.9323 24.3512ZM47.9008 17.8136L52.2486 25.6397L53.7689 24.7951L49.421 16.969L47.9008 17.8136Z" fill="url(#paint0_linear_512_111)" mask="url(#path-3-inside-1_512_111)"/>
<rect x="0.834807" y="0.434783" width="69.1304" height="51.7391" rx="3.91304" stroke="#9747FF" stroke-width="0.869565" stroke-dasharray="8.7 4.35"/>
<defs>
<linearGradient id="paint0_linear_512_111" x1="31.7044" y1="24.3478" x2="53.0088" y2="24.3478" gradientUnits="userSpaceOnUse">
<stop stop-color="#061E2B"/>
<stop offset="1" stop-color="#07202D"/>
</linearGradient>
</defs>
</svg>
