<svg width="19" height="19" viewBox="0 0 19 19" fill="none" xmlns="http://www.w3.org/2000/svg">
<path d="M16.8357 4.5578C14.1865 0.473616 8.77775 -0.7406 4.58318 1.79822C0.498999 4.33703 -0.8256 9.8562 1.8236 13.9404L2.04437 14.2715L1.1613 17.583L5.46625 17.25L4.80395 16.9207C6.23893 17.6934 7.7843 18.1349 9.32967 18.1349C10.9854 18.1349 12.6412 17.6934 14.0761 16.8103C18.1603 14.1611 19.3745 8.75237 16.8357 4.5578ZM14.5177 13.0573C14.0761 13.7196 13.5242 14.1611 12.7515 14.2715C12.31 14.2715 11.7581 14.4923 9.55043 13.6092C7.67392 12.7262 6.12855 11.2912 5.02472 9.63543C4.36242 8.86275 4.03127 7.8693 3.92088 6.87585C3.92088 5.99278 4.25203 5.2201 4.80395 4.66818C5.02472 4.44742 5.24548 4.33703 5.46625 4.33703H6.01817C6.23893 4.33703 6.4597 4.33703 6.57008 4.77857C6.79085 5.33048 7.34276 6.65508 7.34276 6.76547C7.45315 6.87585 7.45315 7.09662 7.34276 7.207C7.45315 7.42777 7.34277 7.64853 7.23238 7.75892C7.122 7.8693 7.01162 8.09007 6.90123 8.20045C6.68047 8.31083 6.57008 8.5316 6.68047 8.75237C7.122 9.41467 7.67392 10.077 8.22583 10.6289C8.88813 11.1808 9.55043 11.6223 10.3231 11.9535C10.5439 12.0639 10.7646 12.0639 10.875 11.8431C10.9854 11.6223 11.5373 11.0704 11.7581 10.8496C11.9789 10.6289 12.0892 10.6289 12.31 10.7393L14.0761 11.6223C14.2969 11.7327 14.5177 11.8431 14.6281 11.9535C14.7384 12.2846 14.7384 12.7262 14.5177 13.0573Z" fill="#F8F8F8"/>
</svg>
